# xmcd
#
# Track frame offsets:
#	150
#	16351
#	36151
#	53180
#	74727
#	89971
#	105748
#	115801
#	141823
#	162863
#	180137
#	196584
#	212561
#	231869
#	250783
#	266100
#
# Disc length: 3815 seconds
#
# Revision: 1
# Processed by: cddbd v1.5.1PL2 Copyright (c) Steve Scherf et al.
# Submitted via: audiograbber 1.83.01
#
DISCID=e10ee510
DTITLE=Various Artist - Moments of Love (14)
DYEAR=1900
DGENRE=
TTITLE0=F.R.David - Words
TTITLE1=Randy Seed - Two Hearts in Heaven
TTITLE2=Morris Albert - Sweet Loving Man
TTITLE3=Engelbert - Angeles
TTITLE4=REO Speedwagon - One Lonely Night
TTITLE5=The Stranglers - Golden Brown
TTITLE6=Beach Boys - In My Room
TTITLE7=Peaches and Herb - Reunited
TTITLE8=Kool and the Gang - As One
TTITLE9=Pointer Sisters - I Need You
TTITLE10=Commodores - Three Times A Lady
TTITLE11=Peabo Bryson and Roberta Flack - Tonight I Celebrate My Love
TTITLE12=Debarge - Love Me In A Special Way
TTITLE13=Billy Idol - Eyes Without A Face
TTITLE14=Journey - Patiently
TTITLE15=Level 42 - Love In A Peaceful World
EXTD=
EXTT0=
EXTT1=
EXTT2=
EXTT3=
EXTT4=
EXTT5=
EXTT6=
EXTT7=
EXTT8=
EXTT9=
EXTT10=
EXTT11=
EXTT12=
EXTT13=
EXTT14=
EXTT15=
PLAYORDER=
